<svg xmlns="http://www.w3.org/2000/svg" width="70" height="55.03" viewBox="0 0 70 55.03">
  <metadata><?xpacket begin="﻿" id="W5M0MpCehiHzreSzNTczkc9d"?>
<x:xmpmeta xmlns:x="adobe:ns:meta/" x:xmptk="Adobe XMP Core 5.6-c142 79.160924, 2017/07/13-01:06:39        ">
   <rdf:RDF xmlns:rdf="http://www.w3.org/1999/02/22-rdf-syntax-ns#">
      <rdf:Description rdf:about=""/>
   </rdf:RDF>
</x:xmpmeta>
                                                                                                    
                                                                                                    
                                                                                                    
                                                                                                    
                                                                                                    
                                                                                                    
                                                                                                    
                                                                                                    
                                                                                                    
                                                                                                    
                                                                                                    
                                                                                                    
                                                                                                    
                                                                                                    
                                                                                                    
                                                                                                    
                                                                                                    
                                                                                                    
                                                                                                    
                                                                                                    
                           
<?xpacket end="w"?></metadata>
<defs>
    <style>
      .cls-1 {
        fill-rule: evenodd;
      }
    </style>
  </defs>
  <path id="icon-house" class="cls-1" d="M935.261,4216.84h11.612a1.308,1.308,0,0,0,.108-2.61v-11.76a1.3,1.3,0,0,0-1.3-1.3h-9.017a1.3,1.3,0,0,0-1.3,1.3v11.75h-0.108A1.31,1.31,0,0,0,935.261,4216.84Zm9.125-13.06v3.91h-6.422v-3.91h6.422Zm-6.422,6.53h6.422v3.91h-6.422v-3.91Zm19.1,4.29a1.3,1.3,0,0,0-1.835,0,1.335,1.335,0,0,0-.381.93,1.311,1.311,0,0,0,.381.92,1.274,1.274,0,0,0,1.835,0,1.314,1.314,0,0,0,.379-0.92A1.337,1.337,0,0,0,957.065,4214.6Zm15.906,2.24h11.613a1.308,1.308,0,0,0,.108-2.61v-11.76a1.3,1.3,0,0,0-1.3-1.3h-9.017a1.3,1.3,0,0,0-1.3,1.3v11.75h-0.108A1.31,1.31,0,0,0,972.971,4216.84Zm9.125-13.06v3.91h-6.421v-3.91H982.1Zm-6.421,6.53H982.1v3.91h-6.421v-3.91Zm18.027,17.08h-1.2v-27.97l0.594,0.3a1.293,1.293,0,0,0,1.88-1.17v-5.25a1.3,1.3,0,0,0-.716-1.16l-5.7-2.89v-8.94a1.307,1.307,0,0,0-1.3-1.31h-7.719a1.306,1.306,0,0,0-1.3,1.31v3.72l-17.655-8.92a1.26,1.26,0,0,0-1.164,0l-33.7,17.03a1.3,1.3,0,0,0-.716,1.16v5.25a1.316,1.316,0,0,0,.616,1.12,1.38,1.38,0,0,0,.682.19,1.329,1.329,0,0,0,.582-0.14l0.621-.31v27.98h-1.2a1.305,1.305,0,0,0,0,2.61h67.4A1.305,1.305,0,0,0,993.7,4227.39Zm-40.164-23.61h12.9v23.61h-12.9v-23.61Zm15.493,18.26H989.9v5.35H969.031v-5.35Zm11.8-36.77v-3.65h5.124v6.32l-5.128-2.6C980.83,4185.32,980.832,4185.29,980.832,4185.27Zm-53.237,8.84,32.4-16.37,32.377,16.37v2.32l-31.795-16.07a1.26,1.26,0,0,0-1.164,0L927.6,4196.44v-2.33Zm32.4-11.12,29.917,15.13a1.135,1.135,0,0,0-.014.18v21.12H969.031v-16.95a1.3,1.3,0,0,0-1.3-1.3H952.24a1.3,1.3,0,0,0-1.3,1.3v16.95H930.1V4198.3a1.5,1.5,0,0,0-.016-0.2Zm-29.9,39.05h20.845v5.35H930.1v-5.35h0Z" transform="translate(-925 -4174.97)"/>
</svg>
