<svg xmlns="http://www.w3.org/2000/svg" width="70" height="65" viewBox="0 0 70 65">
  <metadata><?xpacket begin="﻿" id="W5M0MpCehiHzreSzNTczkc9d"?>
<x:xmpmeta xmlns:x="adobe:ns:meta/" x:xmptk="Adobe XMP Core 5.6-c142 79.160924, 2017/07/13-01:06:39        ">
   <rdf:RDF xmlns:rdf="http://www.w3.org/1999/02/22-rdf-syntax-ns#">
      <rdf:Description rdf:about=""/>
   </rdf:RDF>
</x:xmpmeta>
                                                                                                    
                                                                                                    
                                                                                                    
                                                                                                    
                                                                                                    
                                                                                                    
                                                                                                    
                                                                                                    
                                                                                                    
                                                                                                    
                                                                                                    
                                                                                                    
                                                                                                    
                                                                                                    
                                                                                                    
                                                                                                    
                                                                                                    
                                                                                                    
                                                                                                    
                                                                                                    
                           
<?xpacket end="w"?></metadata>
<defs>
    <style>
      .cls-1 {
        fill-rule: evenodd;
      }
    </style>
  </defs>
  <path id="Forma_1" data-name="Forma 1" class="cls-1" d="M1393.52,4230h-67.04a1.48,1.48,0,0,1,0-2.96h67.04A1.48,1.48,0,0,1,1393.52,4230Zm-2.72-6.75a1.485,1.485,0,0,1-1.49-1.48v-32.73h-11.95a1.485,1.485,0,1,1,0-2.97h13.44a1.483,1.483,0,0,1,1.48,1.48v34.22A1.477,1.477,0,0,1,1390.8,4223.25Zm-7.39,0a1.485,1.485,0,0,1-1.49-1.48V4203.1h-8.19v18.67a1.485,1.485,0,0,1-2.97,0v-20.16a1.49,1.49,0,0,1,1.48-1.48c0.07,0,.12.01,0.18,0.01s0.12-.01.19-0.01h10.44c0.06,0,.12.01,0.18,0.01s0.12-.01.18-0.01a1.49,1.49,0,0,1,1.48,1.48v20.16A1.483,1.483,0,0,1,1383.41,4223.25Zm-17.29,0h-29.53a1.477,1.477,0,0,1-1.48-1.48v-21.06a1.477,1.477,0,0,1,1.48-1.48h29.53a1.477,1.477,0,0,1,1.48,1.48v21.06A1.477,1.477,0,0,1,1366.12,4223.25Zm-28.04-2.96h26.56v-18.1h-26.56v18.1Zm-8.88,2.96a1.477,1.477,0,0,1-1.48-1.48v-34.22a1.483,1.483,0,0,1,1.48-1.48h13.44a1.485,1.485,0,1,1,0,2.97h-11.95v32.73A1.485,1.485,0,0,1,1329.2,4223.25Zm17.08-5.79a1.48,1.48,0,0,1-1.05-2.53l9.49-9.48a1.481,1.481,0,0,1,2.1,2.09l-9.5,9.49A1.452,1.452,0,0,1,1346.28,4217.46Zm31.55-2.06a1.485,1.485,0,0,1-1.49-1.48v-2.89a1.485,1.485,0,0,1,2.97,0v2.89A1.483,1.483,0,0,1,1377.83,4215.4Zm-35.07-3.73a1.446,1.446,0,0,1-1.04-.44,1.473,1.473,0,0,1,0-2.09l3.69-3.69a1.481,1.481,0,0,1,2.1,2.09l-3.7,3.69A1.486,1.486,0,0,1,1342.76,4211.67Zm17.24-15.96a14.152,14.152,0,0,1-6.59-26.69,1.481,1.481,0,1,1,1.38,2.62,11.21,11.21,0,1,0,10.42,0,1.481,1.481,0,1,1,1.38-2.62A14.152,14.152,0,0,1,1360,4195.71Zm0-7.21a6.229,6.229,0,0,1-6.23-6.22v-4.74a1.477,1.477,0,0,1,1.48-1.48h9.5a1.477,1.477,0,0,1,1.48,1.48v2.05h1.38a1.48,1.48,0,1,1,0,2.96h-1.39A6.228,6.228,0,0,1,1360,4188.5Zm-3.27-9.48v3.26a3.265,3.265,0,0,0,6.53,0v-3.26h-6.53Zm3.27-5.1a1.483,1.483,0,0,1-1.48-1.48v-5.96a1.48,1.48,0,0,1,2.96,0v5.96A1.483,1.483,0,0,1,1360,4173.92Z" transform="translate(-1325 -4165)"/>
</svg>
