<svg xmlns="http://www.w3.org/2000/svg" width="14" height="14" viewBox="0 0 14 14">
  <metadata><?xpacket begin="﻿" id="W5M0MpCehiHzreSzNTczkc9d"?>
<x:xmpmeta xmlns:x="adobe:ns:meta/" x:xmptk="Adobe XMP Core 5.6-c142 79.160924, 2017/07/13-01:06:39        ">
   <rdf:RDF xmlns:rdf="http://www.w3.org/1999/02/22-rdf-syntax-ns#">
      <rdf:Description rdf:about=""/>
   </rdf:RDF>
</x:xmpmeta>
                                                                                                    
                                                                                                    
                                                                                                    
                                                                                                    
                                                                                                    
                                                                                                    
                                                                                                    
                                                                                                    
                                                                                                    
                                                                                                    
                                                                                                    
                                                                                                    
                                                                                                    
                                                                                                    
                                                                                                    
                                                                                                    
                                                                                                    
                                                                                                    
                                                                                                    
                                                                                                    
                           
<?xpacket end="w"?></metadata>
<defs>
    <style>
      .cls-1 {
        fill-rule: evenodd;
      }
    </style>
  </defs>
  <path id="icon-rss" class="cls-1" d="M631.071,6837.85a2.075,2.075,0,1,0,2.077,2.07A2.077,2.077,0,0,0,631.071,6837.85Zm-1.861-5.28a0.22,0.22,0,0,0-.216.22v2.64a0.218,0.218,0,0,0,.216.21,6.152,6.152,0,0,1,6.142,6.14,0.218,0.218,0,0,0,.215.22h2.647a0.22,0.22,0,0,0,.218-0.22l-0.011-.06A9.229,9.229,0,0,0,629.21,6832.57Zm13.783,9.15A13.8,13.8,0,0,0,629.21,6828a0.22,0.22,0,0,0-.216.22v2.71a0.22,0.22,0,0,0,.216.22,10.646,10.646,0,0,1,10.637,10.63,0.219,0.219,0,0,0,.215.22h2.725a0.222,0.222,0,0,0,.219-0.22Z" transform="translate(-629 -6828)"/>
</svg>
