<svg xmlns="http://www.w3.org/2000/svg" width="140" height="137" viewBox="0 0 140 137">
  <metadata><?xpacket begin="﻿" id="W5M0MpCehiHzreSzNTczkc9d"?>
<x:xmpmeta xmlns:x="adobe:ns:meta/" x:xmptk="Adobe XMP Core 5.6-c142 79.160924, 2017/07/13-01:06:39        ">
   <rdf:RDF xmlns:rdf="http://www.w3.org/1999/02/22-rdf-syntax-ns#">
      <rdf:Description rdf:about=""/>
   </rdf:RDF>
</x:xmpmeta>
                                                                                                    
                                                                                                    
                                                                                                    
                                                                                                    
                                                                                                    
                                                                                                    
                                                                                                    
                                                                                                    
                                                                                                    
                                                                                                    
                                                                                                    
                                                                                                    
                                                                                                    
                                                                                                    
                                                                                                    
                                                                                                    
                                                                                                    
                                                                                                    
                                                                                                    
                                                                                                    
                           
<?xpacket end="w"?></metadata>
<defs>
    <style>
      .cls-1 {
        fill-rule: evenodd;
      }
    </style>
  </defs>
  <path id="icon" class="cls-1" d="M1382,2065.06a127.155,127.155,0,0,0,55.5.01,1.85,1.85,0,0,0,1.46-1.99,30.54,30.54,0,0,0-21.55-26.08v-2.17a1.825,1.825,0,1,0-3.65,0v1.4a24.286,24.286,0,0,0-7.98,0v-1.4a1.825,1.825,0,1,0-3.65,0V2037a30.526,30.526,0,0,0-21.55,26.08A1.84,1.84,0,0,0,1382,2065.06Zm20.13-24.23v5.67a1.825,1.825,0,0,0,3.65,0v-6.58a24.064,24.064,0,0,1,3.99-.36,25.078,25.078,0,0,1,3.99.35v6.58a1.825,1.825,0,1,0,3.65,0v-5.66a26.863,26.863,0,0,1,17.7,21.01,123.448,123.448,0,0,1-50.68,0A26.828,26.828,0,0,1,1402.13,2040.83Zm18.93,19.02a51.611,51.611,0,0,1-22.58,0,1.828,1.828,0,0,1,.79-3.57,48.152,48.152,0,0,0,21,0A1.828,1.828,0,0,1,1421.06,2059.85Zm-41.7,13.47c0.03-1.18.14-4.8,2.72-5.78,2.56-.96,5.17,1.64,5.66,2.17a1.842,1.842,0,0,1-.08,2.59,1.821,1.821,0,0,1-2.58-.09,5.065,5.065,0,0,0-1.67-1.19,5.96,5.96,0,0,0-.41,2.41c-0.18,6.35,4.72,8.06,4.77,8.08a1.812,1.812,0,0,1,1.18,1.24l0.08,0.29a1.857,1.857,0,0,1,.06.34c1.4,16.66,14.54,22.06,20.68,22.06s19.28-5.4,20.68-22.06a1.751,1.751,0,0,1,.06-0.33l0.07-.29a1.841,1.841,0,0,1,1.19-1.25c0.19-.07,4.95-1.82,4.77-8.08a6.061,6.061,0,0,0-.41-2.41,5.211,5.211,0,0,0-1.67,1.19,1.825,1.825,0,1,1-2.66-2.5c0.49-.53,3.09-3.13,5.65-2.16,2.59,0.98,2.7,4.59,2.73,5.77a11.733,11.733,0,0,1-6.18,11.19c-1.82,16.95-15.17,24.58-24.23,24.58s-22.41-7.63-24.23-24.57A11.773,11.773,0,0,1,1379.36,2073.32Zm33.2-.35a1.812,1.812,0,0,0-1.39.64,2.18,2.18,0,0,0-.2.37h-2.41a1.616,1.616,0,0,0-.19-0.37,1.827,1.827,0,0,0-1.39-.64h-14.37a1.844,1.844,0,0,0-1.83,1.86c0.03,1.71.33,7.44,2.83,9.48a10.723,10.723,0,0,0,6.53,2.12,7.27,7.27,0,0,0,5.47-2.07c1.31-1.45,2.19-4.48,2.69-6.73h2.94c0.5,2.25,1.38,5.28,2.69,6.73a7.27,7.27,0,0,0,5.47,2.07,10.723,10.723,0,0,0,6.53-2.12c2.5-2.04,2.8-7.77,2.83-9.48a1.844,1.844,0,0,0-1.83-1.86h-14.37Zm-9.65,8.92a3.776,3.776,0,0,1-2.77.88,7.2,7.2,0,0,1-4.22-1.29c-0.63-.52-1.15-2.68-1.37-4.86h10.23C1404.31,2078.77,1403.6,2081.14,1402.91,2081.89Zm20.72-.41a7.219,7.219,0,0,1-4.22,1.29,3.83,3.83,0,0,1-2.79-.88c-0.68-.75-1.39-3.12-1.86-5.26h10.23C1424.77,2078.8,1424.25,2080.96,1423.63,2081.48Zm45.41,28.26a190.08,190.08,0,0,1-56.16,9.44v44.04a1.825,1.825,0,1,1-3.65,0V2125.8a190.337,190.337,0,0,1-41.17-4.63,2.1,2.1,0,0,1-.42-0.09c-5.75-1.31-11.45-2.85-17.07-4.69l1.02,14.14a1.817,1.817,0,0,1-1.68,1.95,0.66,0.66,0,0,1-.14.01,1.839,1.839,0,0,1-1.82-1.7l-1.22-16.88a1.84,1.84,0,0,1,.71-1.58,1.818,1.818,0,0,1,1.7-.28,189.509,189.509,0,0,0,18.26,5.21c3.88-6.19,10.18-10.89,18.78-13.99l-0.11-1.91a1.823,1.823,0,0,1,3.64-.22l0.46,7.92,5.45-1.95a1.827,1.827,0,1,1,1.23,3.44l-7.74,2.78a1.872,1.872,0,0,1-.61.11,1.767,1.767,0,0,1-1.01-.31,1.793,1.793,0,0,1-.81-1.41l-0.28-4.63c-6.86,2.63-11.9,6.25-15.23,11.03a186.12,186.12,0,0,0,38.06,4.02v-4.77a1.833,1.833,0,0,1,1.81-1.83,185.95,185.95,0,0,0,32-3.01,37.074,37.074,0,0,0-9.67-5.46l-0.27,4.65a1.85,1.85,0,0,1-1.82,1.72,1.883,1.883,0,0,1-.62-0.11l-7.74-2.78a1.829,1.829,0,0,1-1.1-2.34,1.81,1.81,0,0,1,2.33-1.1l5.45,1.95,0.47-7.92a1.8,1.8,0,0,1,1.93-1.71,1.824,1.824,0,0,1,1.71,1.93l-0.11,1.9a39.038,39.038,0,0,1,13.95,8.41,188.393,188.393,0,0,0,22.85-6.24,1.825,1.825,0,0,1,1.69.26,1.845,1.845,0,0,1,.72,1.55l-1.15,24.56a1.827,1.827,0,1,1-3.65-.17Zm8.82,28.41c-1.63-1.64-4.18-2.44-7.8-2.44s-6.17.8-7.79,2.44c-2.18,2.2-2.16,5.28-2.15,8v12.68a9.94,9.94,0,1,0,19.88,0v-12.68C1480.02,2143.43,1480.04,2140.35,1477.86,2138.15Zm-1.5,7.97v12.71a6.284,6.284,0,0,1-12.03,2.57h3.71a1.83,1.83,0,0,0,0-3.66h-4.27v-3.09h4.27a1.825,1.825,0,0,0,0-3.65h-4.27v-3.33h4.27a1.83,1.83,0,0,0,0-3.66h-4.24a4.994,4.994,0,0,1,1.05-3.28c0.9-.9,2.65-1.36,5.21-1.36s4.31,0.45,5.21,1.36C1476.38,2141.84,1476.37,2143.92,1476.36,2146.12Zm-125.76-11.61c-3.87,0-6.59.85-8.32,2.59-2.32,2.33-2.3,5.63-2.28,8.54v13.73a10.605,10.605,0,1,0,21.21,0v-13.73c0.01-2.91.03-6.21-2.28-8.54C1357.2,2135.36,1354.47,2134.51,1350.6,2134.51Zm0,31.83a6.971,6.971,0,0,1-6.95-6.97v-13.75c-0.02-2.41-.03-4.69,1.21-5.94,1-1.01,2.93-1.52,5.74-1.52s4.75,0.51,5.75,1.52a5.649,5.649,0,0,1,1.18,3.8h-4.74a1.83,1.83,0,0,0,0,3.66h4.77v3.9h-4.77a1.83,1.83,0,0,0,0,3.66h4.77v3.64h-4.77a1.83,1.83,0,0,0,0,3.66h4.25A6.969,6.969,0,0,1,1350.6,2166.34Z" transform="translate(-1340 -2033)"/>
</svg>
