<svg xmlns="http://www.w3.org/2000/svg" width="40" height="23" viewBox="0 0 40 23">
  <metadata><?xpacket begin="﻿" id="W5M0MpCehiHzreSzNTczkc9d"?>
<x:xmpmeta xmlns:x="adobe:ns:meta/" x:xmptk="Adobe XMP Core 5.6-c142 79.160924, 2017/07/13-01:06:39        ">
   <rdf:RDF xmlns:rdf="http://www.w3.org/1999/02/22-rdf-syntax-ns#">
      <rdf:Description rdf:about=""/>
   </rdf:RDF>
</x:xmpmeta>
                                                                                                    
                                                                                                    
                                                                                                    
                                                                                                    
                                                                                                    
                                                                                                    
                                                                                                    
                                                                                                    
                                                                                                    
                                                                                                    
                                                                                                    
                                                                                                    
                                                                                                    
                                                                                                    
                                                                                                    
                                                                                                    
                                                                                                    
                                                                                                    
                                                                                                    
                                                                                                    
                           
<?xpacket end="w"?></metadata>
<defs>
    <style>
      .cls-1 {
        fill-rule: evenodd;
      }
    </style>
  </defs>
  <path id="icon-link" class="cls-1" d="M706.594,3044a6.145,6.145,0,0,1-1.64-.22,6.292,6.292,0,0,1-3.823-3l-0.287-.51a6.518,6.518,0,0,1,2.3-8.79l12.954-7.64a6.234,6.234,0,0,1,8.6,2.35l0.288,0.51a6.517,6.517,0,0,1-2.3,8.79l-1.146.68a1.169,1.169,0,0,1-1.607-.44,1.212,1.212,0,0,1,.431-1.64l1.146-.68a4,4,0,0,0,1.837-2.45,4.056,4.056,0,0,0-.394-3.05l-0.287-.51a3.9,3.9,0,0,0-5.388-1.48l-12.954,7.64a4.088,4.088,0,0,0-1.443,5.51l0.287,0.51a3.949,3.949,0,0,0,2.395,1.88,3.878,3.878,0,0,0,2.993-.41l2.893-1.7a1.152,1.152,0,0,1,1.607.44,1.214,1.214,0,0,1-.431,1.64l-2.893,1.7A6.089,6.089,0,0,1,706.594,3044Zm14.164-1.98a6.264,6.264,0,0,1-5.464-3.22l-0.288-.5a6.517,6.517,0,0,1,2.305-8.79l1.146-.68a1.168,1.168,0,0,1,1.607.44,1.215,1.215,0,0,1-.43,1.64l-1.146.68a4,4,0,0,0-1.838,2.45,4.061,4.061,0,0,0,.394,3.05l0.288,0.51a3.9,3.9,0,0,0,5.387,1.48l12.954-7.64a4.092,4.092,0,0,0,1.443-5.51l-0.287-.51a3.947,3.947,0,0,0-2.395-1.88,3.876,3.876,0,0,0-2.992.41l-2.894,1.7a1.152,1.152,0,0,1-1.607-.44,1.214,1.214,0,0,1,.431-1.64l2.893-1.71a6.155,6.155,0,0,1,4.778-.64,6.289,6.289,0,0,1,3.823,3l0.288,0.51a6.506,6.506,0,0,1,.629,4.88,6.382,6.382,0,0,1-2.934,3.91l-12.954,7.64A6.188,6.188,0,0,1,720.758,3042.02Z" transform="translate(-700 -3021)"/>
</svg>
