<svg xmlns="http://www.w3.org/2000/svg" width="38.031" height="23" viewBox="0 0 38.031 23">
  <metadata><?xpacket begin="﻿" id="W5M0MpCehiHzreSzNTczkc9d"?>
<x:xmpmeta xmlns:x="adobe:ns:meta/" x:xmptk="Adobe XMP Core 5.6-c142 79.160924, 2017/07/13-01:06:39        ">
   <rdf:RDF xmlns:rdf="http://www.w3.org/1999/02/22-rdf-syntax-ns#">
      <rdf:Description rdf:about=""/>
   </rdf:RDF>
</x:xmpmeta>
                                                                                                    
                                                                                                    
                                                                                                    
                                                                                                    
                                                                                                    
                                                                                                    
                                                                                                    
                                                                                                    
                                                                                                    
                                                                                                    
                                                                                                    
                                                                                                    
                                                                                                    
                                                                                                    
                                                                                                    
                                                                                                    
                                                                                                    
                                                                                                    
                                                                                                    
                                                                                                    
                           
<?xpacket end="w"?></metadata>
<defs>
    <style>
      .cls-1 {
        fill-rule: evenodd;
      }
    </style>
  </defs>
  <path id="icon-eye" class="cls-1" d="M737.35,2873.77c-0.41-.49-0.844-0.95-1.261-1.37a32.514,32.514,0,0,0-7.871-5.97,20.968,20.968,0,0,0-6.012-2.16,18.038,18.038,0,0,0-3.2-.27,17.508,17.508,0,0,0-3.264.27,21.411,21.411,0,0,0-6.012,2.16,32.2,32.2,0,0,0-7.871,5.97c-0.478.48-.892,0.92-1.26,1.37a2.612,2.612,0,0,0,0,3.42,29.409,29.409,0,0,0,4.049,3.88,25.867,25.867,0,0,0,10.578,5.55,17.4,17.4,0,0,0,3.78.38,17.11,17.11,0,0,0,3.719-.38,25.721,25.721,0,0,0,10.619-5.55,28.73,28.73,0,0,0,4.008-3.88A2.575,2.575,0,0,0,737.35,2873.77Zm-1.736,1.9a25.033,25.033,0,0,1-3.719,3.59,23.353,23.353,0,0,1-9.647,5.06,15.45,15.45,0,0,1-3.244.34h-0.062a15.325,15.325,0,0,1-3.2-.34,23.587,23.587,0,0,1-9.689-5.06,24.584,24.584,0,0,1-3.677-3.59c-0.145-.11-0.145-0.23,0-0.38a5.2,5.2,0,0,1,.537-0.63c0.263-.28.454-0.49,0.558-0.62a29.22,29.22,0,0,1,7.313-5.48,19.787,19.787,0,0,1,5.371-1.97,16.792,16.792,0,0,1,2.851-.25,16.253,16.253,0,0,1,2.83.25,19.549,19.549,0,0,1,5.372,1.97,28.335,28.335,0,0,1,7.272,5.48c0.537,0.55.916,0.97,1.136,1.25A0.264,0.264,0,0,1,735.614,2875.67Zm-16.61-7.6a6.964,6.964,0,0,0-5.164,2.18,7.515,7.515,0,0,0,0,10.48,7,7,0,0,0,5.164,2.15,6.846,6.846,0,0,0,5.1-2.15,7.16,7.16,0,0,0,2.128-5.23,7.245,7.245,0,0,0-2.128-5.25A6.808,6.808,0,0,0,719,2868.07Zm3.492,11.02a4.694,4.694,0,0,1-3.492,1.47,4.766,4.766,0,0,1-3.532-1.49,5.1,5.1,0,0,1,0-7.16,4.775,4.775,0,0,1,3.532-1.5,4.7,4.7,0,0,1,3.492,1.5A5.179,5.179,0,0,1,722.5,2879.09Z" transform="translate(-699.969 -2864)"/>
</svg>
