<svg xmlns="http://www.w3.org/2000/svg" width="70" height="87" viewBox="0 0 70 87">
  <metadata><?xpacket begin="﻿" id="W5M0MpCehiHzreSzNTczkc9d"?>
<x:xmpmeta xmlns:x="adobe:ns:meta/" x:xmptk="Adobe XMP Core 5.6-c142 79.160924, 2017/07/13-01:06:39        ">
   <rdf:RDF xmlns:rdf="http://www.w3.org/1999/02/22-rdf-syntax-ns#">
      <rdf:Description rdf:about=""/>
   </rdf:RDF>
</x:xmpmeta>
                                                                                                    
                                                                                                    
                                                                                                    
                                                                                                    
                                                                                                    
                                                                                                    
                                                                                                    
                                                                                                    
                                                                                                    
                                                                                                    
                                                                                                    
                                                                                                    
                                                                                                    
                                                                                                    
                                                                                                    
                                                                                                    
                                                                                                    
                                                                                                    
                                                                                                    
                                                                                                    
                           
<?xpacket end="w"?></metadata>
<defs>
    <style>
      .cls-1 {
        fill-rule: evenodd;
      }
    </style>
  </defs>
  <path id="icon-location" class="cls-1" d="M987,6145.04a26.833,26.833,0,1,0-53.664-.09,27.306,27.306,0,0,0,.242,3.5L924,6153.27V6205l23.333-11.76L970.667,6205,994,6193.24v-51.72Zm-40.83,46.44-19.834,10v-47.03l7.61-3.84a26.842,26.842,0,0,0,4.174,9.7h0l8.05,11.17v20h0Zm23.333,10.58-21-10.58v-16.76l11.667,16.19,9.333-12.85v24Zm-9.333-15.13-19.936-27.68a24.628,24.628,0,0,1,19.936-38.91v0.01a24.8,24.8,0,0,1,19.936,39.13Zm31.5,5.14-19.834,9.99v-27.21l10.384-14.3h0a27.111,27.111,0,0,0,4.68-13.12l4.77-2.39v47.03h0Zm-31.5-61.14a14.11,14.11,0,1,0,14,14.11A14.057,14.057,0,0,0,960.167,6130.93Zm0,25.89a11.775,11.775,0,1,1,11.686-11.78A11.737,11.737,0,0,1,960.167,6156.82Z" transform="translate(-924 -6118)"/>
</svg>
