<svg xmlns="http://www.w3.org/2000/svg" width="70" height="63" viewBox="0 0 70 63">
  <metadata><?xpacket begin="﻿" id="W5M0MpCehiHzreSzNTczkc9d"?>
<x:xmpmeta xmlns:x="adobe:ns:meta/" x:xmptk="Adobe XMP Core 5.6-c142 79.160924, 2017/07/13-01:06:39        ">
   <rdf:RDF xmlns:rdf="http://www.w3.org/1999/02/22-rdf-syntax-ns#">
      <rdf:Description rdf:about=""/>
   </rdf:RDF>
</x:xmpmeta>
                                                                                                    
                                                                                                    
                                                                                                    
                                                                                                    
                                                                                                    
                                                                                                    
                                                                                                    
                                                                                                    
                                                                                                    
                                                                                                    
                                                                                                    
                                                                                                    
                                                                                                    
                                                                                                    
                                                                                                    
                                                                                                    
                                                                                                    
                                                                                                    
                                                                                                    
                                                                                                    
                           
<?xpacket end="w"?></metadata>
<defs>
    <style>
      .cls-1 {
        fill-rule: evenodd;
      }
    </style>
  </defs>
  <path id="icon-hospital" class="cls-1" d="M593.517,3820H526.483a1.5,1.5,0,0,1,0-2.99h67.034A1.5,1.5,0,0,1,593.517,3820Zm-2.719-6.8a1.491,1.491,0,0,1-1.483-1.5v-32.98H577.357a1.5,1.5,0,0,1,0-2.99H590.8a1.491,1.491,0,0,1,1.483,1.5v34.47A1.491,1.491,0,0,1,590.8,3813.2Zm-7.391,0H571.7a1.49,1.49,0,0,1-1.482-1.5v-21.22a1.488,1.488,0,0,1,1.482-1.49h11.7a1.488,1.488,0,0,1,1.483,1.49v21.22A1.491,1.491,0,0,1,583.407,3813.2Zm-10.221-2.99h8.738v-18.24h-8.738v18.24Zm-7.605,2.99a1.491,1.491,0,0,1-1.483-1.5v-18.81h-8.2v18.81a1.483,1.483,0,1,1-2.966,0v-20.31a1.488,1.488,0,0,1,1.483-1.49c0.061,0,.12.01,0.179,0.01a1.1,1.1,0,0,1,.182-0.01h10.44a1.087,1.087,0,0,1,.181.01c0.059,0,.119-0.01.18-0.01a1.488,1.488,0,0,1,1.482,1.49v20.31A1.489,1.489,0,0,1,565.581,3813.2Zm-17.284,0h-11.7a1.491,1.491,0,0,1-1.483-1.5v-21.22a1.488,1.488,0,0,1,1.483-1.49h11.7a1.488,1.488,0,0,1,1.483,1.49v21.22A1.491,1.491,0,0,1,548.3,3813.2Zm-10.221-2.99h8.738v-18.24h-8.738v18.24Zm-8.874,2.99a1.491,1.491,0,0,1-1.483-1.5v-34.47a1.491,1.491,0,0,1,1.483-1.5h13.441a1.5,1.5,0,0,1,0,2.99H530.685v32.98A1.491,1.491,0,0,1,529.2,3813.2Zm30.8-7.91a1.488,1.488,0,0,1-1.483-1.49v-2.92a1.483,1.483,0,1,1,2.966,0v2.92A1.488,1.488,0,0,1,560,3805.29Zm12.22-20.7H547.779a1.491,1.491,0,0,1-1.483-1.5v-24.6a1.488,1.488,0,0,1,1.483-1.49H572.22a1.488,1.488,0,0,1,1.483,1.49v24.6A1.491,1.491,0,0,1,572.22,3784.59Zm-22.958-2.99h21.476v-21.62H549.262v21.62Zm13.276-3.05h-5.076a1.491,1.491,0,0,1-1.483-1.5v-2.21h-2.2a1.488,1.488,0,0,1-1.483-1.49v-5.11a1.482,1.482,0,0,1,1.483-1.49h2.2v-2.22a1.488,1.488,0,0,1,1.483-1.49h5.076a1.488,1.488,0,0,1,1.483,1.49v2.22h2.2a1.482,1.482,0,0,1,1.483,1.49v5.11a1.488,1.488,0,0,1-1.483,1.49h-2.2v2.21A1.491,1.491,0,0,1,562.538,3778.55Zm-3.593-2.99h2.11v-2.21a1.482,1.482,0,0,1,1.483-1.49h2.2v-2.13h-2.2a1.488,1.488,0,0,1-1.483-1.49v-2.21h-2.11v2.21a1.488,1.488,0,0,1-1.483,1.49h-2.2v2.13h2.2a1.482,1.482,0,0,1,1.483,1.49v2.21Z" transform="translate(-525 -3757)"/>
</svg>
