<svg xmlns="http://www.w3.org/2000/svg" width="140" height="139" viewBox="0 0 140 139">
  <metadata><?xpacket begin="﻿" id="W5M0MpCehiHzreSzNTczkc9d"?>
<x:xmpmeta xmlns:x="adobe:ns:meta/" x:xmptk="Adobe XMP Core 5.6-c142 79.160924, 2017/07/13-01:06:39        ">
   <rdf:RDF xmlns:rdf="http://www.w3.org/1999/02/22-rdf-syntax-ns#">
      <rdf:Description rdf:about=""/>
   </rdf:RDF>
</x:xmpmeta>
                                                                                                    
                                                                                                    
                                                                                                    
                                                                                                    
                                                                                                    
                                                                                                    
                                                                                                    
                                                                                                    
                                                                                                    
                                                                                                    
                                                                                                    
                                                                                                    
                                                                                                    
                                                                                                    
                                                                                                    
                                                                                                    
                                                                                                    
                                                                                                    
                                                                                                    
                                                                                                    
                           
<?xpacket end="w"?></metadata>
<defs>
    <style>
      .cls-1 {
        fill-rule: evenodd;
      }
    </style>
  </defs>
  <path id="icon" class="cls-1" d="M98.829,2066.05a131.9,131.9,0,0,0,57.442.01,1.9,1.9,0,0,0,1.506-2.05,31.478,31.478,0,0,0-22.306-26.88v-2.25a1.888,1.888,0,0,0-3.775,0v1.45a25.241,25.241,0,0,0-8.258,0v-1.45a1.888,1.888,0,0,0-3.776,0v2.25a31.482,31.482,0,0,0-22.3,26.88A1.9,1.9,0,0,0,98.829,2066.05Zm20.834-24.97v5.83a1.888,1.888,0,1,0,3.776,0v-6.78a23.224,23.224,0,0,1,8.258,0v6.78a1.888,1.888,0,1,0,3.775,0v-5.84a27.7,27.7,0,0,1,18.325,21.66,128.57,128.57,0,0,1-52.457,0A27.7,27.7,0,0,1,119.662,2041.08Zm19.594,19.6a53.59,53.59,0,0,1-23.375,0,1.885,1.885,0,1,1,.821-3.68,50.1,50.1,0,0,0,21.731,0A1.885,1.885,0,1,1,139.256,2060.68Zm-43.165,13.89c0.036-1.23.145-4.95,2.822-5.96,2.645-1,5.344,1.69,5.858,2.23a1.888,1.888,0,1,1-2.758,2.58,5.312,5.312,0,0,0-1.723-1.23,5.98,5.98,0,0,0-.425,2.49c-0.191,6.45,4.74,8.25,4.949,8.33a1.89,1.89,0,0,1,1.21,1.28l0.081,0.3a1.777,1.777,0,0,1,.061.34c1.444,17.18,15.042,22.74,21.4,22.74s19.958-5.56,21.4-22.74a1.864,1.864,0,0,1,.062-0.35l0.081-.29a1.888,1.888,0,0,1,1.223-1.29c0.2-.07,5.125-1.87,4.937-8.32a6.013,6.013,0,0,0-.425-2.49,5.2,5.2,0,0,0-1.727,1.23,1.887,1.887,0,0,1-2.754-2.58c0.513-.54,3.208-3.22,5.855-2.23,2.677,1.01,2.788,4.73,2.824,5.96a12.124,12.124,0,0,1-6.4,11.53c-1.886,17.47-15.7,25.33-25.081,25.33s-23.2-7.86-25.081-25.33A12.122,12.122,0,0,1,96.092,2074.57Zm73.022,75.51-14.945-.01c-3.747,0-10.723,0-10.723,10.97s6.974,10.96,10.721,10.96l14.948-.01A10.955,10.955,0,1,0,169.113,2150.08Zm0,18.14-14.948.01c-4.033,0-6.947,0-6.947-7.19,0-6.3,2.233-7.08,5.5-7.18v4.92a1.888,1.888,0,0,0,3.775,0v-4.94l4.028,0.01v4.93a1.888,1.888,0,0,0,3.776,0v-4.93h3.756v4.93a1.888,1.888,0,0,0,3.775,0v-4.39A7.176,7.176,0,0,1,169.113,2168.22Zm-63.544-18.15-14.944.01a10.955,10.955,0,1,0,0,21.91l14.948,0.01c3.747,0,10.722,0,10.722-10.96S109.316,2150.07,105.569,2150.07Zm0,18.16-14.948-.01a7.182,7.182,0,0,1-2.711-13.84v4.39a1.888,1.888,0,1,0,3.775,0v-4.92l3.756-.01v4.93a1.888,1.888,0,1,0,3.775,0v-4.93h4.028v4.93a1.888,1.888,0,1,0,3.776,0v-4.92c3.262,0.1,5.5.89,5.5,7.18C112.518,2168.23,109.6,2168.23,105.571,2168.23Zm36.226-7.19a1.883,1.883,0,0,1-1.888,1.88H120.887a1.885,1.885,0,1,1,0-3.77h19.022A1.884,1.884,0,0,1,141.8,2161.04Zm-70.2-12.02a2.478,2.478,0,1,1-2.478-2.47A2.479,2.479,0,0,1,71.6,2149.02Zm126.511-20.91H183.64a1.883,1.883,0,0,0-1.888,1.88v5.13h-22.2l4.4-18.57a33.886,33.886,0,0,1,8.5,13.25,1.886,1.886,0,0,0,1.785,1.27,1.856,1.856,0,0,0,.61-0.1,1.885,1.885,0,0,0,1.176-2.39,38.565,38.565,0,0,0-23.767-23.55l0.087-1.57a1.893,1.893,0,0,0-1.782-1.99,1.917,1.917,0,0,0-1.988,1.78l-0.481,8.78-5.478-2.57a1.884,1.884,0,0,0-1.605,3.41l8.013,3.76a1.89,1.89,0,0,0,2.688-1.61l0.333-6.05a31.767,31.767,0,0,1,2.944,1.26l-4.124,17.07H103.436L99.5,2110.71a32.128,32.128,0,0,1,3.83-1.72l0.331,6.03a1.881,1.881,0,0,0,.917,1.52,1.86,1.86,0,0,0,.968.27,1.884,1.884,0,0,0,.8-0.18l8.011-3.76a1.884,1.884,0,0,0-1.605-3.41l-5.478,2.57-0.481-8.78a1.888,1.888,0,0,0-3.77.21l0.087,1.57a37.138,37.138,0,0,0-6.85,3.16,0.22,0.22,0,0,0-.068.04,38.465,38.465,0,0,0-5.5,3.91l-0.032.03A38.768,38.768,0,0,0,82,2122.66a35.656,35.656,0,0,0-2.652,5.92,1.883,1.883,0,0,0,1.176,2.39,1.855,1.855,0,0,0,.61.1,1.886,1.886,0,0,0,1.786-1.27,32.256,32.256,0,0,1,2.375-5.3,34.834,34.834,0,0,1,5.421-7.22l4.228,17.85h-16.7V2130a1.892,1.892,0,0,0-1.888-1.89H61.888A1.892,1.892,0,0,0,60,2130v38.05a1.892,1.892,0,0,0,1.888,1.89H76.36a1.892,1.892,0,0,0,1.888-1.89v-29.16h103.5v29.16a1.883,1.883,0,0,0,1.888,1.88h14.472a1.883,1.883,0,0,0,1.888-1.88v-38.06A1.883,1.883,0,0,0,198.112,2128.11Zm-123.64,38.05H71.554a2.438,2.438,0,0,0-4.859,0h-2.92v-34.28H66.69a2.441,2.441,0,0,0,4.866,0h2.915v34.28h0Zm86.256-52.38-5.057,21.34h-2.813l5.55-22.96Q159.6,2112.925,160.728,2113.78Zm-10.773,17.29-0.98,4.05H105.29l-0.961-4.05h45.626Zm-56.046-16.69c0.713-.58,1.44-1.13,2.194-1.65l5.306,22.39H98.825Zm102.316,51.78h-2.919a2.438,2.438,0,0,0-4.858,0h-2.921v-34.28h2.915a2.44,2.44,0,0,0,4.866,0h2.915v34.28h0Zm-2.871-17.14a2.479,2.479,0,1,1-2.479-2.47A2.479,2.479,0,0,1,193.354,2149.02Zm-86.12-76.26a1.891,1.891,0,0,0-1.887,1.89c0,5.17,1.1,9.06,3.276,11.57a9.821,9.821,0,0,0,7.793,3.3h0c4.536,0,9.177-2.2,11.156-3.26,1.972,1.04,6.585,3.2,11.1,3.2,4.15,0,11.112-1.93,11.112-14.81a1.883,1.883,0,0,0-1.888-1.88H107.234v-0.01Zm31.442,12.93c-4.77,0-10.078-3.17-10.13-3.21a1.9,1.9,0,0,0-1.967.01c-0.053.03-5.363,3.26-10.161,3.26h0a6.144,6.144,0,0,1-4.94-2c-1.322-1.52-2.092-3.94-2.3-7.22h36.775C145.359,2085.69,140.381,2085.69,138.676,2085.69Z" transform="translate(-60 -2033)"/>
</svg>
