<svg xmlns="http://www.w3.org/2000/svg" width="17" height="16" viewBox="0 0 17 16">
  <metadata><?xpacket begin="﻿" id="W5M0MpCehiHzreSzNTczkc9d"?>
<x:xmpmeta xmlns:x="adobe:ns:meta/" x:xmptk="Adobe XMP Core 5.6-c142 79.160924, 2017/07/13-01:06:39        ">
   <rdf:RDF xmlns:rdf="http://www.w3.org/1999/02/22-rdf-syntax-ns#">
      <rdf:Description rdf:about=""/>
   </rdf:RDF>
</x:xmpmeta>
                                                                                                    
                                                                                                    
                                                                                                    
                                                                                                    
                                                                                                    
                                                                                                    
                                                                                                    
                                                                                                    
                                                                                                    
                                                                                                    
                                                                                                    
                                                                                                    
                                                                                                    
                                                                                                    
                                                                                                    
                                                                                                    
                                                                                                    
                                                                                                    
                                                                                                    
                                                                                                    
                           
<?xpacket end="w"?></metadata>
<defs>
    <style>
      .cls-1 {
        fill-rule: evenodd;
      }
    </style>
  </defs>
  <path id="icon-linkedin" class="cls-1" d="M484,6835.81V6842h-3.644v-5.78c0-1.45-.527-2.44-1.846-2.44a1.99,1.99,0,0,0-1.869,1.32,2.4,2.4,0,0,0-.121.87V6842h-3.645s0.049-9.78,0-10.8h3.645v1.53a0.166,0.166,0,0,1-.024.04h0.024v-0.04a3.634,3.634,0,0,1,3.284-1.78C482.2,6830.95,484,6832.49,484,6835.81ZM469.062,6826a1.872,1.872,0,1,0-.048,3.73h0.024A1.873,1.873,0,1,0,469.062,6826Zm-1.846,16h3.644v-10.8h-3.644V6842Z" transform="translate(-467 -6826)"/>
</svg>
