<svg xmlns="http://www.w3.org/2000/svg" width="78" height="78" viewBox="0 0 78 78">
  <metadata><?xpacket begin="﻿" id="W5M0MpCehiHzreSzNTczkc9d"?>
<x:xmpmeta xmlns:x="adobe:ns:meta/" x:xmptk="Adobe XMP Core 5.6-c142 79.160924, 2017/07/13-01:06:39        ">
   <rdf:RDF xmlns:rdf="http://www.w3.org/1999/02/22-rdf-syntax-ns#">
      <rdf:Description rdf:about=""/>
   </rdf:RDF>
</x:xmpmeta>
                                                                                                    
                                                                                                    
                                                                                                    
                                                                                                    
                                                                                                    
                                                                                                    
                                                                                                    
                                                                                                    
                                                                                                    
                                                                                                    
                                                                                                    
                                                                                                    
                                                                                                    
                                                                                                    
                                                                                                    
                                                                                                    
                                                                                                    
                                                                                                    
                                                                                                    
                                                                                                    
                           
<?xpacket end="w"?></metadata>
<defs>
    <style>
      .cls-1 {
        fill-rule: evenodd;
      }
    </style>
  </defs>
  <path id="icon-phone" class="cls-1" d="M336.944,6148.47a1.216,1.216,0,0,1-2.238.95,13.5,13.5,0,0,0-2.871-4.25h0a13.622,13.622,0,0,0-1.992-1.64,12.906,12.906,0,0,0-2.249-1.23,1.215,1.215,0,0,1,.943-2.24,16.026,16.026,0,0,1,2.67,1.45,15.691,15.691,0,0,1,2.356,1.94h0A15.849,15.849,0,0,1,336.944,6148.47Zm7.747,0.16a1.218,1.218,0,1,1-2.355.62,20.783,20.783,0,0,0-2.066-4.95,21.123,21.123,0,0,0-3.293-4.27,20.754,20.754,0,0,0-9.231-5.36,1.216,1.216,0,1,1,.628-2.35,23.409,23.409,0,0,1,5.544,2.31A23.262,23.262,0,0,1,344.691,6148.63Zm7.5,0.08a1.217,1.217,0,1,1-2.391.46,27.82,27.82,0,0,0-2.761-7.69l-0.033-.06a28.005,28.005,0,0,0-4.874-6.53l0-.01a28.243,28.243,0,0,0-6.6-4.9,27.773,27.773,0,0,0-7.7-2.76,1.217,1.217,0,1,1,.465-2.39,30,30,0,0,1,8.377,3.01,30.548,30.548,0,0,1,7.173,5.32l0.005,0.01a30.616,30.616,0,0,1,5.29,7.09l0.038,0.07A30.016,30.016,0,0,1,352.186,6148.71Zm6.319,33.04a1.215,1.215,0,1,1-1.438,1.96l-19.01-13.92-1.232,1.23-1.969,1.97c-4.686,4.68-11.713,3.57-18.182-.36a38.161,38.161,0,0,1-12.331-12.33c-3.943-6.46-5.063-13.49-.406-18.14l3.237-3.23-13.095-17.86-5.913,5.86,0,0.01-0.051.05c-4.642,4.63-5.859,10.79-3.481,18.25,2.47,7.76,8.753,16.9,19.018,27.24l0.414,0.41h0q1.053,1.05,1.728,1.71c9.968,9.66,18.827,15.57,26.343,17.87,7.239,2.22,13.215,1.02,17.7-3.47l0.061-.06,0.145-.14,1.565-1.62a1.217,1.217,0,0,1,1.743,1.7l-1.565,1.62h0l-0.15.15-0.069.08c-5.165,5.16-11.962,6.56-20.13,4.06-7.889-2.41-17.085-8.52-27.334-18.45-0.706-.68-1.293-1.26-1.756-1.73h0l-0.416-.42c-10.542-10.61-17.021-20.09-19.61-28.21-2.678-8.41-1.255-15.39,4.073-20.72l0.051-.05h0l6.916-6.86c0.043-.04.089-0.08,0.137-0.12a1.224,1.224,0,0,1,1.7.26l14.5,19.77a1.225,1.225,0,0,1-.061,1.66l-3.976,3.97c-3.7,3.7-2.622,9.6.76,15.15a34.959,34.959,0,0,0,5.1,6.42,34.565,34.565,0,0,0,6.418,5.09c5.549,3.38,11.456,4.45,15.188.72l1.969-1.97,1.97-1.97h0a1.224,1.224,0,0,1,1.578-.12Zm-5.3,5.3a1.215,1.215,0,1,1-1.438,1.96l-4.965-3.63-4.964-3.64-4.965-3.63a1.215,1.215,0,1,1,1.438-1.96l4.965,3.63,4.964,3.64Zm-65.265-61.82a1.217,1.217,0,0,1,1.962-1.44l3.635,4.96,3.639,4.96,3.638,4.96a1.216,1.216,0,0,1-1.961,1.44l-3.636-4.97-3.638-4.95Z" transform="translate(-281 -6118)"/>
</svg>
