<svg xmlns="http://www.w3.org/2000/svg" width="17" height="15" viewBox="0 0 17 15">
  <metadata><?xpacket begin="﻿" id="W5M0MpCehiHzreSzNTczkc9d"?>
<x:xmpmeta xmlns:x="adobe:ns:meta/" x:xmptk="Adobe XMP Core 5.6-c142 79.160924, 2017/07/13-01:06:39        ">
   <rdf:RDF xmlns:rdf="http://www.w3.org/1999/02/22-rdf-syntax-ns#">
      <rdf:Description rdf:about=""/>
   </rdf:RDF>
</x:xmpmeta>
                                                                                                    
                                                                                                    
                                                                                                    
                                                                                                    
                                                                                                    
                                                                                                    
                                                                                                    
                                                                                                    
                                                                                                    
                                                                                                    
                                                                                                    
                                                                                                    
                                                                                                    
                                                                                                    
                                                                                                    
                                                                                                    
                                                                                                    
                                                                                                    
                                                                                                    
                                                                                                    
                           
<?xpacket end="w"?></metadata>
<defs>
    <style>
      .cls-1 {
        fill-rule: evenodd;
      }
    </style>
  </defs>
  <path id="icon-twitter" class="cls-1" d="M444.531,6828.28a6.751,6.751,0,0,1-2.216.92,3.35,3.35,0,0,0-2.545-1.2,3.651,3.651,0,0,0-3.488,3.79,4.184,4.184,0,0,0,.09.86,9.68,9.68,0,0,1-7.188-3.96,4.03,4.03,0,0,0-.471,1.91,3.885,3.885,0,0,0,1.551,3.15,3.213,3.213,0,0,1-1.58-.48v0.05a3.728,3.728,0,0,0,2.8,3.71,3.113,3.113,0,0,1-.919.14,3.542,3.542,0,0,1-.656-0.07,3.545,3.545,0,0,0,3.257,2.63,6.684,6.684,0,0,1-4.331,1.62,7.6,7.6,0,0,1-.832-0.05,9.346,9.346,0,0,0,5.346,1.7c6.415,0,9.922-5.77,9.922-10.78l-0.011-.49a7.339,7.339,0,0,0,1.743-1.96,6.281,6.281,0,0,1-2,.6A3.769,3.769,0,0,0,444.531,6828.28Z" transform="translate(-428 -6828)"/>
</svg>
