<svg xmlns="http://www.w3.org/2000/svg" width="70" height="61" viewBox="0 0 70 61">
  <metadata><?xpacket begin="﻿" id="W5M0MpCehiHzreSzNTczkc9d"?>
<x:xmpmeta xmlns:x="adobe:ns:meta/" x:xmptk="Adobe XMP Core 5.6-c142 79.160924, 2017/07/13-01:06:39        ">
   <rdf:RDF xmlns:rdf="http://www.w3.org/1999/02/22-rdf-syntax-ns#">
      <rdf:Description rdf:about=""/>
   </rdf:RDF>
</x:xmpmeta>
                                                                                                    
                                                                                                    
                                                                                                    
                                                                                                    
                                                                                                    
                                                                                                    
                                                                                                    
                                                                                                    
                                                                                                    
                                                                                                    
                                                                                                    
                                                                                                    
                                                                                                    
                                                                                                    
                                                                                                    
                                                                                                    
                                                                                                    
                                                                                                    
                                                                                                    
                                                                                                    
                           
<?xpacket end="w"?></metadata>
<defs>
    <style>
      .cls-1 {
        fill-rule: evenodd;
      }
    </style>
  </defs>
  <path id="icon-school" class="cls-1" d="M993.517,3820H926.483a1.47,1.47,0,1,1,0-2.94h67.034A1.47,1.47,0,1,1,993.517,3820Zm-2.72-6.7a1.478,1.478,0,0,1-1.483-1.47v-32.5H952.39a1.47,1.47,0,1,1,0-2.94H990.8a1.478,1.478,0,0,1,1.482,1.47v33.97A1.478,1.478,0,0,1,990.8,3813.3Zm-51.5,0a1.478,1.478,0,0,1-1.483-1.47v-24.1a1.483,1.483,0,0,1,2.966,0v24.1A1.478,1.478,0,0,1,939.293,3813.3Zm45.2-2.93h-6.04a1.478,1.478,0,0,1-1.483-1.47v-8.55a1.48,1.48,0,0,1,1.483-1.48h6.04a1.48,1.48,0,0,1,1.483,1.48v8.55A1.478,1.478,0,0,1,984.5,3810.37Zm-4.557-2.94h3.074v-5.61H979.94v5.61h0Zm-7.547,2.94h-6.039a1.478,1.478,0,0,1-1.483-1.47v-8.55a1.48,1.48,0,0,1,1.483-1.48h6.039a1.48,1.48,0,0,1,1.483,1.48v8.55A1.478,1.478,0,0,1,972.393,3810.37Zm-4.557-2.94h3.075v-5.61h-3.075v5.61Zm-7.546,2.94h-6.04a1.478,1.478,0,0,1-1.483-1.47v-8.55a1.48,1.48,0,0,1,1.483-1.48h6.04a1.48,1.48,0,0,1,1.483,1.48v8.55A1.478,1.478,0,0,1,960.29,3810.37Zm-4.558-2.94h3.075v-5.61h-3.075v5.61Zm-23-3.12a1.492,1.492,0,0,1-1.241-.67,9.087,9.087,0,0,1-1.514-4.65,13.484,13.484,0,1,1,18.628-16.35,9.2,9.2,0,0,1,0,16.35,9.109,9.109,0,0,1-1.5,4.63,1.485,1.485,0,0,1-2.052.43,1.457,1.457,0,0,1-.432-2.03,6.244,6.244,0,0,0,1.029-3.43c0-.14,0-0.28-0.016-0.43a1.467,1.467,0,0,1,.937-1.47,6.279,6.279,0,0,0,0-11.74,1.476,1.476,0,0,1-.937-1.47c0.011-.16.016-0.3,0.016-0.44a6.357,6.357,0,0,0-12.714,0c0,0.14,0,.29.015,0.43a1.478,1.478,0,0,1-.936,1.48,6.279,6.279,0,0,0,0,11.74,1.465,1.465,0,0,1,.936,1.47c-0.01.15-.015,0.29-0.015,0.43a6.236,6.236,0,0,0,1.037,3.44,1.468,1.468,0,0,1-.427,2.04A1.511,1.511,0,0,1,932.734,3804.31Zm51.763-9.32h-6.04a1.478,1.478,0,0,1-1.483-1.47v-8.56a1.478,1.478,0,0,1,1.483-1.47h6.04a1.478,1.478,0,0,1,1.483,1.47v8.56A1.478,1.478,0,0,1,984.5,3794.99Zm-4.557-2.94h3.074v-5.62H979.94v5.62h0Zm-7.547,2.94h-6.039a1.478,1.478,0,0,1-1.483-1.47v-8.56a1.478,1.478,0,0,1,1.483-1.47h6.039a1.478,1.478,0,0,1,1.483,1.47v8.56A1.478,1.478,0,0,1,972.393,3794.99Zm-4.557-2.94h3.075v-5.62h-3.075v5.62Zm-7.546,2.94h-2.809a1.47,1.47,0,1,1,0-2.94h1.326v-5.62h-1.326a1.47,1.47,0,1,1,0-2.94h2.809a1.478,1.478,0,0,1,1.483,1.47v8.56A1.478,1.478,0,0,1,960.29,3794.99Zm26.153-21.26a1.478,1.478,0,0,1-1.482-1.47v-10.32H963.883v10.32a1.483,1.483,0,0,1-2.965,0v-11.79A1.478,1.478,0,0,1,962.4,3759h24.042a1.478,1.478,0,0,1,1.483,1.47v11.79A1.477,1.477,0,0,1,986.443,3773.73Zm-6.168-2.39a1.478,1.478,0,0,1-1.483-1.47v-2.86a1.483,1.483,0,0,1,2.966,0v2.86A1.478,1.478,0,0,1,980.275,3771.34Zm-5.853,0a1.478,1.478,0,0,1-1.483-1.47v-2.86a1.483,1.483,0,0,1,2.966,0v2.86A1.478,1.478,0,0,1,974.422,3771.34Zm-5.852,0a1.478,1.478,0,0,1-1.483-1.47v-2.86a1.483,1.483,0,0,1,2.965,0v2.86A1.477,1.477,0,0,1,968.57,3771.34Z" transform="translate(-925 -3759)"/>
</svg>
