<svg xmlns="http://www.w3.org/2000/svg" width="87" height="71" viewBox="0 0 87 71">
  <metadata><?xpacket begin="﻿" id="W5M0MpCehiHzreSzNTczkc9d"?>
<x:xmpmeta xmlns:x="adobe:ns:meta/" x:xmptk="Adobe XMP Core 5.6-c142 79.160924, 2017/07/13-01:06:39        ">
   <rdf:RDF xmlns:rdf="http://www.w3.org/1999/02/22-rdf-syntax-ns#">
      <rdf:Description rdf:about=""/>
   </rdf:RDF>
</x:xmpmeta>
                                                                                                    
                                                                                                    
                                                                                                    
                                                                                                    
                                                                                                    
                                                                                                    
                                                                                                    
                                                                                                    
                                                                                                    
                                                                                                    
                                                                                                    
                                                                                                    
                                                                                                    
                                                                                                    
                                                                                                    
                                                                                                    
                                                                                                    
                                                                                                    
                                                                                                    
                                                                                                    
                           
<?xpacket end="w"?></metadata>
<defs>
    <style>
      .cls-1 {
        fill-rule: evenodd;
      }
    </style>
  </defs>
  <path id="icon-plane" class="cls-1" d="M1643,6119.43v-0.13a0.127,0.127,0,0,0-.01-0.06h0v-0.07a0.109,0.109,0,0,1-.01-0.05c-0.01-.03-0.01-0.05-0.02-0.08v-0.01a0.433,0.433,0,0,1-.01-0.05,0.488,0.488,0,0,1-.03-0.07,0.037,0.037,0,0,0-.01-0.03c0-.01-0.01-0.02-0.01-0.03h0l-0.03-.06-0.03-.06c0-.01-0.01-0.02-0.01-0.03s-0.01-.02-0.02-0.03a0.351,0.351,0,0,0-.05-0.08c-0.01-.01-0.01-0.02-0.02-0.03h0a0.435,0.435,0,0,0-.06-0.07c-0.01-.01-0.02-0.03-0.03-0.04l-0.02-.02a0.053,0.053,0,0,1-.02-0.03,0.265,0.265,0,0,1-.06-0.05v-0.01a0.053,0.053,0,0,1-.03-0.02h-0.01a0.038,0.038,0,0,0-.02-0.02l-0.01-.01a0.138,0.138,0,0,0-.04-0.03,0.052,0.052,0,0,0-.04-0.02,0.179,0.179,0,0,0-.07-0.05c-0.02-.01-0.03-0.02-0.05-0.03l-0.06-.03a0.037,0.037,0,0,0-.03-0.01c0-.01-0.01-0.01-0.02-0.01a0.035,0.035,0,0,0-.02-0.01,0.169,0.169,0,0,0-.05-0.02c-0.02-.01-0.04-0.01-0.06-0.02s-0.02-.01-0.03-0.01a0.227,0.227,0,0,1-.04-0.01c-0.02-.01-0.05-0.01-0.08-0.02h-0.04a0.01,0.01,0,0,0-.01-0.01h-0.07a0.127,0.127,0,0,0-.06-0.01h-0.19a0.037,0.037,0,0,1-.03.01h-0.04a0.127,0.127,0,0,1-.06.01,0.637,0.637,0,0,1-.07.02h0c-0.02,0-.04.01-0.06,0.01s-0.05.02-.07,0.03a0.037,0.037,0,0,0-.03.01h-0.01l-84.28,32.77a1.369,1.369,0,0,0,0,2.55l25.13,9.71,8.05,24.94,0.01,0.01v0.02c0.02,0.05.04,0.1,0.07,0.16,0.01,0.01.01,0.02,0.02,0.03a1,1,0,0,0,.08.14c0.01,0,.01.01,0.01,0.02h0.01a0.01,0.01,0,0,0,.01.01,0.138,0.138,0,0,0,.03.04,0.218,0.218,0,0,0,.04.05,0.138,0.138,0,0,1,.03.04c0.01,0,.01.01,0.02,0.01a0.053,0.053,0,0,0,.02.03,0.053,0.053,0,0,1,.03.02,0.038,0.038,0,0,0,.02.02c0.03,0.02.05,0.05,0.08,0.07h0.01v0.01c0.01,0,.02.01,0.03,0.01,0.04,0.03.09,0.06,0.14,0.09a0.035,0.035,0,0,0,.02.01,0.01,0.01,0,0,1,.01.01c0.04,0.02.09,0.04,0.14,0.06a0.037,0.037,0,0,1,.03.01,0.076,0.076,0,0,1,.04.01,1.364,1.364,0,0,0,.17.04h0.03a1.225,1.225,0,0,0,.19.02h0.02c0.06,0,.11-0.01.17-0.01a0.02,0.02,0,0,1,.02-0.01h0.04a0.929,0.929,0,0,0,.13-0.04,0.076,0.076,0,0,0,.04-0.01h0.02l0.06-.03a0.689,0.689,0,0,0,.08-0.03,0.01,0.01,0,0,0,.01-0.01h0.01a0.142,0.142,0,0,0,.04-0.02c0.02-.01.05-0.03,0.07-0.04a0.219,0.219,0,0,0,.05-0.03h0a0.02,0.02,0,0,1,.02-0.01,0.265,0.265,0,0,1,.06-0.05,0.138,0.138,0,0,0,.04-0.03l0.04-.04,0.03-.03a1.538,1.538,0,0,0,.12-0.13l0.01-.01a0.01,0.01,0,0,1,.01-0.01c0-.01,0-0.01.01-0.01l9.93-13.49a1.358,1.358,0,1,0-2.18-1.62l-4.32,5.86,3.43-9.41,32.47,12.38a1.319,1.319,0,0,0,.48.09,1.272,1.272,0,0,0,.68-0.19,1.34,1.34,0,0,0,.66-0.97l9.4-61.53v-0.08A0.127,0.127,0,0,0,1643,6119.43Zm-10.61,5-38.83,28.32a1.371,1.371,0,0,0-.3,1.91,1.351,1.351,0,0,0,1.1.56,1.319,1.319,0,0,0,.8-0.26l37.09-27.06-34.71,39.15a1.344,1.344,0,0,0-.32.49c-0.01.03-.02,0.06-0.03,0.1l-5.77,15.81-7.03-21.8a1.419,1.419,0,0,0-.81-0.85h0l-22.44-8.67Zm-1.23,54.59-30.34-11.57,38.78-43.73Zm-43.64-18.81a1.319,1.319,0,0,0,.8-0.26l2.64-1.93a1.364,1.364,0,0,0-1.6-2.21l-2.64,1.93A1.365,1.365,0,0,0,1587.52,6160.21Z" transform="translate(-1556 -6118)"/>
</svg>
