<svg xmlns="http://www.w3.org/2000/svg" width="70" height="45" viewBox="0 0 70 45">
  <metadata><?xpacket begin="﻿" id="W5M0MpCehiHzreSzNTczkc9d"?>
<x:xmpmeta xmlns:x="adobe:ns:meta/" x:xmptk="Adobe XMP Core 5.6-c142 79.160924, 2017/07/13-01:06:39        ">
   <rdf:RDF xmlns:rdf="http://www.w3.org/1999/02/22-rdf-syntax-ns#">
      <rdf:Description rdf:about=""/>
   </rdf:RDF>
</x:xmpmeta>
                                                                                                    
                                                                                                    
                                                                                                    
                                                                                                    
                                                                                                    
                                                                                                    
                                                                                                    
                                                                                                    
                                                                                                    
                                                                                                    
                                                                                                    
                                                                                                    
                                                                                                    
                                                                                                    
                                                                                                    
                                                                                                    
                                                                                                    
                                                                                                    
                                                                                                    
                                                                                                    
                           
<?xpacket end="w"?></metadata>
<defs>
    <style>
      .cls-1 {
        fill-rule: evenodd;
      }
    </style>
  </defs>
  <path id="icon-commercial" class="cls-1" d="M555.458,4212.85h7.929a1.32,1.32,0,0,0,1.322-1.32v-6.56a1.32,1.32,0,0,0-1.322-1.32h-7.929a1.32,1.32,0,0,0-1.322,1.32v6.56A1.32,1.32,0,0,0,555.458,4212.85Zm1.322-6.55h5.285v3.9H556.78v-3.9Zm11.894,6.55h18.478a1.32,1.32,0,0,0,1.322-1.32v-6.56a1.32,1.32,0,0,0-1.322-1.32H568.674a1.32,1.32,0,0,0-1.322,1.32v6.56A1.32,1.32,0,0,0,568.674,4212.85ZM570,4206.3H585.83v3.9H570v-3.9Zm-14.538,18.42h7.929a1.32,1.32,0,0,0,1.322-1.32v-6.56a1.32,1.32,0,0,0-1.322-1.32h-7.929a1.32,1.32,0,0,0-1.322,1.32v6.56A1.32,1.32,0,0,0,555.458,4224.72Zm1.322-6.55h5.285v3.9H556.78v-3.9Zm11.894,6.55h18.478a1.32,1.32,0,0,0,1.322-1.32v-6.56a1.32,1.32,0,0,0-1.322-1.32H568.674a1.32,1.32,0,0,0-1.322,1.32v6.56A1.32,1.32,0,0,0,568.674,4224.72Zm1.322-6.55H585.83v3.9H570v-3.9Zm23.71,9.18v-27.71a1.32,1.32,0,0,0-1.322-1.32H551.477v-12a1.32,1.32,0,0,0-1.322-1.32H527.616a1.32,1.32,0,0,0-1.322,1.32v41.03a1.325,1.325,0,0,0,.028,2.65h67.356A1.325,1.325,0,0,0,593.706,4227.35Zm-2.644-26.39v26.39H551.477v-26.39h39.585Zm-42.228-13.31v39.7h-19.9v-2.63h16a1.325,1.325,0,0,0,0-2.65h-16v-2.64h16a1.325,1.325,0,0,0,0-2.65h-16v-2.64h16a1.325,1.325,0,0,0,0-2.65h-16v-2.64h16a1.325,1.325,0,0,0,0-2.65h-16v-2.64h16a1.325,1.325,0,0,0,0-2.65h-16v-2.64h16a1.325,1.325,0,0,0,0-2.65h-16v-2.64h16a1.32,1.32,0,1,0,0-2.64h-16v-2.69h19.9Z" transform="translate(-525 -4185)"/>
</svg>
