<svg xmlns="http://www.w3.org/2000/svg" width="36" height="67" viewBox="0 0 36 67">
  <metadata><?xpacket begin="﻿" id="W5M0MpCehiHzreSzNTczkc9d"?>
<x:xmpmeta xmlns:x="adobe:ns:meta/" x:xmptk="Adobe XMP Core 5.6-c142 79.160924, 2017/07/13-01:06:39        ">
   <rdf:RDF xmlns:rdf="http://www.w3.org/1999/02/22-rdf-syntax-ns#">
      <rdf:Description rdf:about=""/>
   </rdf:RDF>
</x:xmpmeta>
                                                                                                    
                                                                                                    
                                                                                                    
                                                                                                    
                                                                                                    
                                                                                                    
                                                                                                    
                                                                                                    
                                                                                                    
                                                                                                    
                                                                                                    
                                                                                                    
                                                                                                    
                                                                                                    
                                                                                                    
                                                                                                    
                                                                                                    
                                                                                                    
                                                                                                    
                                                                                                    
                           
<?xpacket end="w"?></metadata>
<defs>
    <style>
      .cls-1 {
        fill-rule: evenodd;
      }
    </style>
  </defs>
  <path id="icon-rocket" class="cls-1" d="M1772.03,7118.81a6.13,6.13,0,0,0,5.37-3.13,5.786,5.786,0,0,0,.74-2.84,6.116,6.116,0,0,0-12.23,0,5.846,5.846,0,0,0,.91,3.13A6.107,6.107,0,0,0,1772.03,7118.81Zm0-10.56a4.644,4.644,0,0,1,4.69,4.59,4.517,4.517,0,0,1-.57,2.18,4.748,4.748,0,0,1-8.12.22,4.5,4.5,0,0,1-.7-2.4A4.646,4.646,0,0,1,1772.03,7108.25Zm-18.01,23.93,5.28,17.01a0.7,0.7,0,0,0,.54.48,0.719,0.719,0,0,0,.69-0.24,13.481,13.481,0,0,1,5.93-3.94v1.05a0.7,0.7,0,0,0,.71.7h9.65a0.7,0.7,0,0,0,.71-0.7v-0.84a13.617,13.617,0,0,1,5.94,3.95,0.729,0.729,0,0,0,.55.25,0.708,0.708,0,0,0,.14-0.01,0.73,0.73,0,0,0,.54-0.48l5.28-17.01a0.7,0.7,0,0,0-.11-0.61,27.167,27.167,0,0,0-3.09-3.58,34.166,34.166,0,0,0,.78-7.25c0-11.5-5.81-22.17-15.16-27.87a0.722,0.722,0,0,0-.75,0c-9.36,5.7-15.17,16.37-15.17,27.87a34.742,34.742,0,0,0,.73,7.03,28.04,28.04,0,0,0-3.09,3.59A0.71,0.71,0,0,0,1754.02,7132.18Zm4.46-3.46a0.664,0.664,0,0,0,.2-0.65,33.448,33.448,0,0,1-.78-7.11,31.214,31.214,0,0,1,14.12-26.45,31.214,31.214,0,0,1,14.12,26.45,33.344,33.344,0,0,1-.82,7.3,0.769,0.769,0,0,0,.01.37,0.724,0.724,0,0,0,.2.31,26.636,26.636,0,0,1,2.98,3.38l-4.81,15.51a15.453,15.453,0,0,0-6.69-3.75,1.108,1.108,0,0,0-.19-0.02,0.692,0.692,0,0,0-.43.14,0.669,0.669,0,0,0-.28.55v1.09h-8.23v-1.3a0.7,0.7,0,0,0-.28-0.56,0.717,0.717,0,0,0-.62-0.11,15.373,15.373,0,0,0-6.68,3.75l-4.81-15.52A26.693,26.693,0,0,1,1758.48,7128.72Zm19.58,9.82a0.692,0.692,0,0,0,.36.92,0.753,0.753,0,0,0,.29.06,0.73,0.73,0,0,0,.65-0.41,47.837,47.837,0,0,0,4.53-22.05,0.707,0.707,0,0,0-1.41.11A47.62,47.62,0,0,1,1778.06,7138.54Zm-11.13,11v5.53a0.71,0.71,0,0,0,1.42,0v-5.53A0.71,0.71,0,0,0,1766.93,7149.54Zm4.36,0v9.77a0.71,0.71,0,0,0,1.42,0v-9.77A0.71,0.71,0,0,0,1771.29,7149.54Zm4.88-.69a0.7,0.7,0,0,0-.71.69v5.53a0.71,0.71,0,0,0,1.42,0v-5.53A0.7,0.7,0,0,0,1776.17,7148.85Z" transform="translate(-1754 -7093)"/>
</svg>
