<svg xmlns="http://www.w3.org/2000/svg" width="14" height="20" viewBox="0 0 14 20">
  <metadata><?xpacket begin="﻿" id="W5M0MpCehiHzreSzNTczkc9d"?>
<x:xmpmeta xmlns:x="adobe:ns:meta/" x:xmptk="Adobe XMP Core 5.6-c142 79.160924, 2017/07/13-01:06:39        ">
   <rdf:RDF xmlns:rdf="http://www.w3.org/1999/02/22-rdf-syntax-ns#">
      <rdf:Description rdf:about=""/>
   </rdf:RDF>
</x:xmpmeta>
                                                                                                    
                                                                                                    
                                                                                                    
                                                                                                    
                                                                                                    
                                                                                                    
                                                                                                    
                                                                                                    
                                                                                                    
                                                                                                    
                                                                                                    
                                                                                                    
                                                                                                    
                                                                                                    
                                                                                                    
                                                                                                    
                                                                                                    
                                                                                                    
                                                                                                    
                                                                                                    
                           
<?xpacket end="w"?></metadata>
<defs>
    <style>
      .cls-1 {
        fill-rule: evenodd;
      }
    </style>
  </defs>
  <path id="icon-foursquare" class="cls-1" d="M521.985,6826a0.866,0.866,0,0,0-.176-0.7,0.827,0.827,0,0,0-.638-0.3H509.886a1.9,1.9,0,0,0-1.886,1.92v17.24a0.837,0.837,0,0,0,.528.78,0.8,0.8,0,0,0,.3.06,0.847,0.847,0,0,0,.611-0.27l5.69-6.31h3.846a0.834,0.834,0,0,0,.814-0.69l1.1-5.85h0Zm-3.7,10.73h-3.523a0.808,0.808,0,0,0-.611.28l-4.5,4.98v-15.07a0.237,0.237,0,0,1,.228-0.24h10.283l-0.782,4.19h-4.945a0.84,0.84,0,0,0,0,1.68h4.63Z" transform="translate(-508 -6825)"/>
</svg>
