<svg xmlns="http://www.w3.org/2000/svg" width="140" height="146.03" viewBox="0 0 140 146.03">
  <metadata><?xpacket begin="﻿" id="W5M0MpCehiHzreSzNTczkc9d"?>
<x:xmpmeta xmlns:x="adobe:ns:meta/" x:xmptk="Adobe XMP Core 5.6-c142 79.160924, 2017/07/13-01:06:39        ">
   <rdf:RDF xmlns:rdf="http://www.w3.org/1999/02/22-rdf-syntax-ns#">
      <rdf:Description rdf:about=""/>
   </rdf:RDF>
</x:xmpmeta>
                                                                                                    
                                                                                                    
                                                                                                    
                                                                                                    
                                                                                                    
                                                                                                    
                                                                                                    
                                                                                                    
                                                                                                    
                                                                                                    
                                                                                                    
                                                                                                    
                                                                                                    
                                                                                                    
                                                                                                    
                                                                                                    
                                                                                                    
                                                                                                    
                                                                                                    
                                                                                                    
                           
<?xpacket end="w"?></metadata>
<defs>
    <style>
      .cls-1 {
        fill-rule: evenodd;
      }
    </style>
  </defs>
  <path id="icon" class="cls-1" d="M709.432,2089.71c-3.381-1.12-9.7-5.73-9.425-15.11,0.044-1.5.182-6.09,3.356-7.29,3.158-1.19,6.452,2.11,7.081,2.78a1.971,1.971,0,0,1-2.882,2.69c-1-1.06-2.42-1.89-2.813-1.78,0.008,0-.706.59-0.8,3.72-0.262,8.83,6.658,11.24,6.729,11.26A1.967,1.967,0,1,1,709.432,2089.71Zm28.047-20.69a1.969,1.969,0,0,0,1.972,1.97h4.438v11.57a1.973,1.973,0,0,0,3.945,0v-13.54a1.966,1.966,0,0,0-1.972-1.96h-6.411A1.968,1.968,0,0,0,737.479,2069.02Zm-1.663,0a1.967,1.967,0,0,0-1.972-1.96H714.391a1.965,1.965,0,1,0,0,3.93h19.451A1.971,1.971,0,0,0,735.816,2069.02Zm-15.764,45.55c6.6,0,11.707-1.9,15.176-5.65a18.776,18.776,0,0,0,4.636-11.49h3.976a1.969,1.969,0,0,0,1.973-1.97v-6.83a1.973,1.973,0,0,0-3.945,0v4.86h-3.955a1.974,1.974,0,0,0-1.967,2.12,16.976,16.976,0,0,1-.741,5.5c-3.792-.91-9.315-3.02-9.315-5.88a1.973,1.973,0,0,0-3.945,0c0,5.7,7.4,8.43,11.563,9.51a10.951,10.951,0,0,1-1.2,1.53c-2.7,2.9-6.819,4.36-12.257,4.36A1.97,1.97,0,1,0,720.052,2114.57Zm58.048,7.2H731.879c-4.4.15-16.715-.29-20.626-4.06a3,3,0,0,1-1.04-2.24,1.973,1.973,0,0,0-3.945,0,6.86,6.86,0,0,0,2.245,5.07c4.88,4.71,16.9,5.19,21.628,5.19,0.9,0,1.531-.01,1.807-0.02H778.1A1.97,1.97,0,1,0,778.1,2121.77Zm0,16.23H730.812c-0.138.01-13.849,1.07-13.849,18.58v20.47a1.973,1.973,0,0,0,3.945,0v-20.47c0-13.73,9.746-14.62,10.026-14.64H778.1A1.97,1.97,0,1,0,778.1,2138Zm61.887-45.84a1.969,1.969,0,0,1-1.972,1.97h-7.4v2.53a1.967,1.967,0,0,1-1.973,1.96h-5.3a34.529,34.529,0,0,1-.4,5.1,1.966,1.966,0,0,1-1.943,1.63H800.853v7.81a8.4,8.4,0,0,1,3.377,2.01c2.5,2.51,2.481,6.06,2.464,9.19l0,14.78a11.468,11.468,0,0,1-22.935,0l0-14.78c-0.016-3.13-.038-6.68,2.465-9.19a8.4,8.4,0,0,1,3.377-2.01v-7.81H778.1a1.969,1.969,0,0,1-1.972-1.97v-22.44a1.969,1.969,0,0,1,1.972-1.97h29.1c5.1,0,9.091,1.68,11.878,4.99a15.354,15.354,0,0,1,1.842,2.79,1.77,1.77,0,0,1,.46-0.09h7.27a1.969,1.969,0,0,1,1.973,1.97v1.56h7.4A1.968,1.968,0,0,1,839.987,2092.16Zm-38.554,25.78c-1.081-1.08-3.168-1.63-6.209-1.63s-5.131.55-6.208,1.63c-1.345,1.35-1.331,3.81-1.318,6.4l0,14.81a7.517,7.517,0,0,0,14.482,2.82h-4.595a1.965,1.965,0,1,1,0-3.93h5.158l0-3.92h-5.16a1.97,1.97,0,1,1,0-3.94h5.16l0-4.2h-5.162a1.97,1.97,0,1,1,0-3.94h5.13C802.642,2120.36,802.368,2118.88,801.433,2117.94Zm-4.525-12.59h-3.369v7.08c0.538-.03,1.1-0.06,1.685-0.06s1.146,0.03,1.684.06v-7.08Zm19.139-18.86c-2.031-2.41-4.929-3.58-8.852-3.58H780.073v18.51h39.183C819.556,2098.17,819.738,2090.86,816.047,2086.49Zm10.626,4.11h-3.326v4.09h3.326v-4.09Zm11.342-57.6a1.969,1.969,0,0,0-1.973,1.97v45.97a1.973,1.973,0,0,0,3.945,0v-45.97A1.969,1.969,0,0,0,838.015,2033Zm0,67.1a1.969,1.969,0,0,0-1.973,1.97v73.66a1.973,1.973,0,0,0,3.945,0v-73.66A1.969,1.969,0,0,0,838.015,2100.1Zm-9.531-15.79a1.971,1.971,0,0,0,2.422-3.11l-4.685-3.64a1.971,1.971,0,0,0-2.422,3.11Zm0,17.52-4.685,3.64a1.971,1.971,0,0,0,2.422,3.11l4.685-3.64A1.971,1.971,0,0,0,828.484,2101.83Zm-38.3-15.82h-6.494a0.98,0.98,0,1,0,0,1.96h6.494A0.98,0.98,0,1,0,790.182,2086.01Zm0,3.27h-6.494a0.985,0.985,0,1,0,0,1.97h6.494A0.985,0.985,0,1,0,790.182,2089.28Zm-88.212-31.75a1.965,1.965,0,1,0,0,3.93h37.481a1.966,1.966,0,0,0,1.973-1.93,38.027,38.027,0,0,0-2.04-11.98h2.225a1.965,1.965,0,1,0,0-3.93h-3.941a21.423,21.423,0,0,0-3.57-4.93,18.9,18.9,0,0,0-14.044-5.53H701.97a1.97,1.97,0,1,0,0,3.94h18.082a15.124,15.124,0,0,1,11.217,4.33,16.357,16.357,0,0,1,1.776,2.19H701.97a1.965,1.965,0,1,0,0,3.93h33.193a33.568,33.568,0,0,1,2.239,9.97H701.97v0.01Z" transform="translate(-700 -2033)"/>
</svg>
