<svg xmlns="http://www.w3.org/2000/svg" width="70" height="59" viewBox="0 0 70 59">
  <metadata><?xpacket begin="﻿" id="W5M0MpCehiHzreSzNTczkc9d"?>
<x:xmpmeta xmlns:x="adobe:ns:meta/" x:xmptk="Adobe XMP Core 5.6-c142 79.160924, 2017/07/13-01:06:39        ">
   <rdf:RDF xmlns:rdf="http://www.w3.org/1999/02/22-rdf-syntax-ns#">
      <rdf:Description rdf:about=""/>
   </rdf:RDF>
</x:xmpmeta>
                                                                                                    
                                                                                                    
                                                                                                    
                                                                                                    
                                                                                                    
                                                                                                    
                                                                                                    
                                                                                                    
                                                                                                    
                                                                                                    
                                                                                                    
                                                                                                    
                                                                                                    
                                                                                                    
                                                                                                    
                                                                                                    
                                                                                                    
                                                                                                    
                                                                                                    
                                                                                                    
                           
<?xpacket end="w"?></metadata>
<defs>
    <style>
      .cls-1 {
        fill-rule: evenodd;
      }
    </style>
  </defs>
  <path id="icon-goverment" class="cls-1" d="M1393.52,3820h-67.04a1.49,1.49,0,0,1,0-2.98h67.04A1.49,1.49,0,0,1,1393.52,3820Zm-2.72-6.8a1.487,1.487,0,0,1-1.49-1.49v-32.94h-9.98a1.49,1.49,0,0,1,0-2.98h11.47a1.485,1.485,0,0,1,1.48,1.49v34.43A1.479,1.479,0,0,1,1390.8,3813.2Zm-12.87,0a1.479,1.479,0,0,1-1.48-1.49v-16.83a1.485,1.485,0,1,1,2.97,0v16.83A1.487,1.487,0,0,1,1377.93,3813.2Zm-11.95,0a1.487,1.487,0,0,1-1.49-1.49v-16.83a1.485,1.485,0,1,1,2.97,0v16.83A1.479,1.479,0,0,1,1365.98,3813.2Zm-11.96,0a1.479,1.479,0,0,1-1.48-1.49v-16.83a1.485,1.485,0,1,1,2.97,0v16.83A1.487,1.487,0,0,1,1354.02,3813.2Zm-11.95,0a1.487,1.487,0,0,1-1.49-1.49v-16.83a1.485,1.485,0,1,1,2.97,0v16.83A1.479,1.479,0,0,1,1342.07,3813.2Zm-12.87,0a1.479,1.479,0,0,1-1.48-1.49v-34.43a1.485,1.485,0,0,1,1.48-1.49h11.47a1.49,1.49,0,0,1,0,2.98h-9.98v32.94A1.487,1.487,0,0,1,1329.2,3813.2Zm55.31-13.94a1.479,1.479,0,0,1-1.48-1.49v-2.89a1.48,1.48,0,1,1,2.96,0v2.89A1.479,1.479,0,0,1,1384.51,3799.26Zm-49.02,0a1.479,1.479,0,0,1-1.48-1.49v-2.89a1.485,1.485,0,1,1,2.97,0v2.89A1.487,1.487,0,0,1,1335.49,3799.26Zm49.02-9.09a1.479,1.479,0,0,1-1.48-1.49v-2.9a1.48,1.48,0,1,1,2.96,0v2.9A1.479,1.479,0,0,1,1384.51,3790.17Zm-49.02,0a1.479,1.479,0,0,1-1.48-1.49v-2.9a1.485,1.485,0,1,1,2.97,0v2.9A1.487,1.487,0,0,1,1335.49,3790.17Zm42.44,0h-35.86a1.49,1.49,0,0,1,0-2.98h35.86A1.49,1.49,0,1,1,1377.93,3790.17Zm0-5.08a1.583,1.583,0,0,1-.66-0.15l-17.43-8.69-17.11,8.68a1.474,1.474,0,0,1-1.99-.66,1.494,1.494,0,0,1,.66-2l17.12-8.68v-11.1A1.485,1.485,0,0,1,1360,3761h10.72a1.485,1.485,0,0,1,1.48,1.49v5.63a1.479,1.479,0,0,1-1.48,1.49h-9.24v4.13l17.11,8.53A1.488,1.488,0,0,1,1377.93,3785.09Zm-16.45-18.46h7.76v-2.65h-7.76v2.65Z" transform="translate(-1325 -3761)"/>
</svg>
